<svg id="Calque_1" data-name="Calque 1" xmlns="http://www.w3.org/2000/svg" viewBox="0 0 22.71 22.71"><defs><style>.cls-1{fill:#fff;}</style></defs><title>Plan de travail 1 copie</title><path class="cls-1" d="M17.94,17.66a22.88,22.88,0,0,0-2.65-.54,2.75,2.75,0,0,1-1.23-.57A10.79,10.79,0,0,1,14,14a7.82,7.82,0,0,0,.58-1.11A14.28,14.28,0,0,0,15,11s.42,0,.57-.73a7.22,7.22,0,0,0,.37-1.73c0-.55-.32-.58-.35-.58h0a9.16,9.16,0,0,0,.34-2.6c0-2.09-1.55-4.16-4.56-4.16S6.75,3.26,6.79,5.35A8.94,8.94,0,0,0,7.13,8h0s-.32,0-.35.58a7.45,7.45,0,0,0,.37,1.71c.15.73.57.74.57.74a14.31,14.31,0,0,0,.42,1.94A7.44,7.44,0,0,0,8.72,14a10.79,10.79,0,0,1-.08,2.51,2.69,2.69,0,0,1-1.23.57,22.68,22.68,0,0,0-2.65.55c-.79.28-3.24,1.23-3.24,3.2H21.18C21.18,18.89,18.74,17.94,17.94,17.66Zm-6.59,2.22H2.92a1.86,1.86,0,0,1,.5-.47,6.37,6.37,0,0,1,1.66-.84,9.41,9.41,0,0,1,1.56-.33c.35-.06.68-.1,1-.17a3.64,3.64,0,0,0,1.77-.9c.28-.33.36-.78.34-2,0-.61,0-1.19,0-1.21v-.26l-.14-.22a6,6,0,0,1-.49-.94,13.2,13.2,0,0,1-.37-1.73s0,.06,0-.23-.52-.26-.58-.49S8,9.7,7.81,9s.17-.69.24-1a1,1,0,0,0,0-.36h0a9.09,9.09,0,0,1-.29-2.32A2.93,2.93,0,0,1,8.61,3.2a3.72,3.72,0,0,1,2.73-1,3.69,3.69,0,0,1,2.74,1,2.93,2.93,0,0,1,.85,2.14,8.57,8.57,0,0,1-.29,2.32h0a.93.93,0,0,0,0,.32c0,.33.42.34.26,1s-.21.9-.26,1.12-.52.2-.58.49,0,.23,0,.23a13.2,13.2,0,0,1-.37,1.73,7.24,7.24,0,0,1-.49.94l-.14.22V14s0,.6,0,1.21c0,1.2.07,1.65.34,2a3.7,3.7,0,0,0,1.77.9c.29.07.63.12,1,.17a9.41,9.41,0,0,1,1.56.33,6.46,6.46,0,0,1,1.66.84,1.86,1.86,0,0,1,.5.47Z"/></svg>