<svg id="Calque_1" data-name="Calque 1" xmlns="http://www.w3.org/2000/svg" viewBox="0 0 22.71 22.71"><defs><style>.cls-1{fill:#fff;}</style></defs><title>Plan de travail 1</title><path class="cls-1" d="M11.35,4.33l-7.8,6.24V20.72H9V14.47h4.68v6.24h5.46V10.57Zm7,15.61h-3.9V13.69H8.23v6.24H4.33v-9l7-5.62,7,5.62Z"/><path class="cls-1" d="M11.35,2,6.67,5.73V3.55H3.55V8.23L2,9.48l.56.56,8.8-7,8.8,7,.56-.56ZM5.89,6.36,4.33,7.61V4.33H5.89Z"/><path class="cls-1" d="M11.35,4.33l-7.8,6.24V20.72H9V14.47h4.68v6.24h5.46V10.57Zm7,15.61h-3.9V13.69H8.23v6.24H4.33v-9l7-5.62,7,5.62Z"/><path class="cls-1" d="M11.35,2,6.67,5.73V3.55H3.55V8.23L2,9.48l.56.56,8.8-7,8.8,7,.56-.56ZM5.89,6.36,4.33,7.61V4.33H5.89Z"/></svg>