<?xml version="1.0" encoding="utf-8"?>
<!-- Generator: Adobe Illustrator 21.1.0, SVG Export Plug-In . SVG Version: 6.00 Build 0)  -->
<svg version="1.1" id="Layer_1" xmlns="http://www.w3.org/2000/svg" xmlns:xlink="http://www.w3.org/1999/xlink" x="0px" y="0px"
	 viewBox="0 0 512 512" style="enable-background:new 0 0 512 512;" xml:space="preserve">
<style type="text/css">
	.st0{fill:#CCD4DA;}
</style>
<path class="st0" d="M285.2,269.9c5-7.8,7.9-17,7.9-27c0-27.8-22.5-50.3-50.2-50.3c-27.8,0-50.3,22.5-50.3,50.3s22.5,50.3,50.2,50.3
	c10.1,0,19.5-3,27.3-8.1l2.3-1.6l35.9,35.9l11.1-11.3l-35.8-35.9L285.2,269.9z M271,214.8c7.5,7.5,11.6,17.5,11.6,28.1
	s-4.1,20.6-11.6,28.1c-7.5,7.5-17.5,11.6-28.1,11.6c-10.6,0-20.6-4.1-28.1-11.6c-7.5-7.5-11.6-17.5-11.6-28.1
	c0-10.6,4.1-20.6,11.6-28.1s17.5-11.6,28.1-11.6C253.5,203.1,263.5,207.3,271,214.8z"/>
</svg>
