<svg id="Calque_1" data-name="Calque 1" xmlns="http://www.w3.org/2000/svg" viewBox="0 0 50 50"><defs><style>.cls-1{fill:#ccd4da;}</style></defs><title>Plan de travail 1 copie</title><path class="cls-1" d="M25,46.83A24.18,24.18,0,0,0,34.19,45l.19-.08s0,0,0,0a3.64,3.64,0,0,1,1.26-.23A3.43,3.43,0,0,1,37,45l9.48,3.49L44,38.5a3.39,3.39,0,0,1,.44-1.65h0a3.85,3.85,0,0,1,.28-.42A22,22,0,0,0,48.47,24.2C48.49,11.67,38,1.52,25,1.52S1.53,11.67,1.53,24.18,12,46.83,25,46.83ZM35.85,21.39A3.61,3.61,0,1,1,32.24,25,3.61,3.61,0,0,1,35.85,21.39ZM25,21.39A3.61,3.61,0,1,1,21.4,25,3.61,3.61,0,0,1,25,21.39Zm-10.84,0A3.61,3.61,0,1,1,10.56,25,3.61,3.61,0,0,1,14.17,21.39Z"/></svg>