<?xml version="1.0" encoding="utf-8"?>
<!-- Generator: Adobe Illustrator 18.1.1, SVG Export Plug-In . SVG Version: 6.00 Build 0)  -->
<!DOCTYPE svg PUBLIC "-//W3C//DTD SVG 1.1//EN" "http://www.w3.org/Graphics/SVG/1.1/DTD/svg11.dtd">
<svg version="1.1" id="Calque_1" xmlns="http://www.w3.org/2000/svg" xmlns:xlink="http://www.w3.org/1999/xlink" x="0px" y="0px"
	 viewBox="0 0 56.7 28.4" enable-background="new 0 0 56.7 28.4" xml:space="preserve">
<g>
	<path fill="#4B4948" d="M14.8,16.1V6.3H9.9L0,13.6v6.3h10.8v3.5h4.1v-3.5h2.1v-3.7H14.8z M10.8,16.1H3.3l7.5-5.7V16.1z"/>
</g>
<rect x="39.2" y="6.3" fill="#4B4948" width="4.3" height="17"/>
<rect x="52.4" y="6.3" fill="#4B4948" width="4.3" height="17"/>
<ellipse transform="matrix(0.9744 -0.2248 0.2248 0.9744 -2.1015 11.1459)" fill="#E30613" cx="47.9" cy="14.8" rx="4" ry="2.5"/>
<path fill="#4B4948" d="M23.6,17.8h-4.2c0,0,0,0,0,1.7c0,2.7,1.2,3.9,4.7,3.9c3.4,0,2.7,0,6.6,0c3.9,0,5.8-0.4,5.8-4.6
	c0-4.2-0.2-5.9-6.1-5.9c-1.1,0-3.4,0-5.1,0c-2.4,0-2.4-2.8-0.2-2.8c1.3,0,4,0,4.8,0c1.3,0,1.7,0.4,1.7,1.7c1.4,0,4.2,0,4.2,0
	s0,0,0-1.7c0-3.7-3.4-3.7-4.7-3.7c-1.3,0-5.6,0-6.6,0c-2.3,0-5.3-0.3-5.3,5.1c0,5.5,2.1,5.2,6.6,5.2c3.1,0,2.2,0,3.9,0
	c3.6,0,2.8,2.9,0.8,2.9c0,0-4.7,0-5.6,0C24.3,19.6,23.6,19.5,23.6,17.8z"/>
</svg>
