<svg id="Calque_1" data-name="Calque 1" xmlns="http://www.w3.org/2000/svg" viewBox="0 0 22.71 22.71"><defs><style>.cls-1{fill:#fff;}</style></defs><title>Plan de travail 1 copie 2</title><path class="cls-1" d="M20.28,3.92H9.53a.33.33,0,0,1-.27-.11l-1-1h0a1,1,0,0,0-.77-.31h-5a1.07,1.07,0,0,0-1.11,1V18.45a1.14,1.14,0,0,0,1.11,1.11H20.28a1.07,1.07,0,0,0,1-1.11V4.94A1,1,0,0,0,20.28,3.92ZM2.51,3.21h5a.28.28,0,0,1,.27.11l1,1a1,1,0,0,0,.77.32H20.28a.28.28,0,0,1,.31.31V6.83a1.06,1.06,0,0,0-.36-.06H2.47a1.06,1.06,0,0,0-.36.06V3.52C2.11,3.33,2.32,3.21,2.51,3.21ZM20.59,18.45c0,.19-.12.4-.31.4H2.51a.43.43,0,0,1-.4-.4V7.83a.36.36,0,0,1,.36-.36H20.24a.36.36,0,0,1,.36.36Z"/></svg>